#!OML:ASF E:\I on waltz\AllaLogoMonkeySwing\Project 1\Capture day 1\Session 1\Subject1.ASF
:FULLY-SPECIFIED
:DEGREES
433
root 1.59984 18.0103 4.01636 6.40862 -0.235085 -1.37964
lowerback 12.832 1.14505 -0.109208
upperback 2.13502 1.57902 1.46098
thorax -4.99262 0.78817 1.32622
lowerneck -12.1749 2.21701 0.97262
upperneck 23.0528 3.42713 -2.20247
head 9.31304 1.44628 -0.523877
rclavicle -1.09332e-014 -1.74931e-014
rhumerus -25.3131 -16.8888 -82.1981
rradius 30.3457
rwrist 0.24579
rhand -5.85825 -37.3309
rfingers 7.12502
rthumb 19.9686 -66.3249
lclavicle -1.09332e-014 -1.74931e-014
lhumerus -33.0339 14.049 85.8397
lradius 41.4002
lwrist -0.829461
lhand -6.16941 -13.3363
lfingers 7.12502
lthumb 19.6695 15.6886
rfemur -13.0225 0.134202 21.0122
rtibia 19.1371
rfoot -11.0675 -9.98939
rtoes 22.3331
lfemur -9.33887 0.469312 -18.1803
ltibia 12.4528
lfoot -11.0095 0.212146
ltoes -28.8009
434
root 1.60061 18.025 3.90359 6.85496 -0.349686 -1.38725
lowerback 13.5267 1.13576 -0.139647
upperback 2.45355 1.56225 1.48029
thorax -5.04064 0.778574 1.35807
lowerneck -12.0088 2.26612 0.926766
upperneck 24.3079 3.54724 -2.2215
head 9.72571 1.48432 -0.508585
rclavicle 3.23025e-014 1.55052e-014
rhumerus -24.3753 -15.7646 -82.677
rradius 30.9173
rwrist -0.17715
rhand -5.86796 -37.2466
rfingers 7.12502
rthumb 19.9593 -66.2416
lclavicle 3.23025e-014 1.55052e-014
lhumerus -32.3265 13.3593 86.2403
lradius 42.0587
lwrist -0.359968
lhand -6.14346 -13.6138
lfingers 7.12502
lthumb 19.6944 15.4085
rfemur -14.0804 0.0767031 21.0035
rtibia 19.348
rfoot -10.6954 -9.78539
rtoes 23.2214
lfemur -10.7395 0.432057 -18.1236
ltibia 13.0117
lfoot -10.0982 0.154992
ltoes -24.5604
435
root 1.6025 18.0231 3.78396 7.33855 -0.457587 -1.40125
lowerback 14.2588 1.05183 -0.240469
upperback 2.8447 1.43445 1.48554
thorax -5.02845 0.714821 1.43587
lowerneck -11.8892 2.36939 0.929812
upperneck 25.4393 3.72395 -2.22364
head 10.1123 1.55368 -0.488485
rclavicle -1.68967e-015 -3.57812e-015
rhumerus -23.2253 -14.4242 -83.3186
rradius 31.5005
rwrist -0.707143
rhand -6.19359 -37.1345
rfingers 7.12502
rthumb 19.6462 -66.1618
lclavicle -1.68967e-015 -3.57812e-015
lhumerus -31.5401 12.7633 86.5135
lradius 42.8681
lwrist 0.104982
lhand -6.25632 -13.5415
lfingers 7.12502
lthumb 19.5859 15.4919
rfemur -15.2575 -0.0875561 21.0166
rtibia 19.6381
rfoot -10.3275 -9.47815
rtoes 23.1781
lfemur -12.0209 0.517009 -18.1033
ltibia 13.6536
lfoot -9.94736 0.161588
ltoes -23.4872
436
root 1.6031 18.0201 3.65264 7.8668 -0.561537 -1.35035
lowerback 15.1329 1.04181 -0.331048
upperback 3.24696 1.3979 1.37501
thorax -5.07808 0.694843 1.36859
lowerneck -11.8001 2.39658 1.11604
upperneck 26.528 3.74932 -2.21967
head 10.497 1.57187 -0.515571
rclavicle 5.36719e-015 -4.96962e-015
rhumerus -22.1434 -13.3664 -83.9599
rradius 32.3602
rwrist -1.20159
rhand -6.30477 -37.2713
rfingers 7.12502
rthumb 19.5394 -66.3094
lclavicle 5.36719e-015 -4.96962e-015
lhumerus -30.733 11.8022 86.7333
lradius 43.8879
lwrist 0.662665
lhand -6.37786 -13.4666
lfingers 7.12502
lthumb 19.4691 15.5787
rfemur -16.5868 -0.205952 20.978
rtibia 20.0338
rfoot -9.97789 -9.22767
rtoes 22.8336
lfemur -13.4458 0.606639 -18.1471
ltibia 14.3473
lfoot -9.89316 0.133628
ltoes -23.3706
437
root 1.60257 18.0154 3.51535 8.37526 -0.600105 -1.31289
lowerback 16.1017 1.16845 -0.230379
upperback 3.67548 1.57252 1.30482
thorax -5.14892 0.77591 1.19217
lowerneck -11.5996 2.23401 1.0763
upperneck 27.5117 3.54801 -2.18027
head 10.8177 1.47313 -0.521848
rclavicle -1.41137e-014 -3.37934e-015
rhumerus -21.3602 -12.7282 -84.1544
rradius 33.686
rwrist -1.43708
rhand -5.90156 -37.4593
rfingers 7.12502
rthumb 19.927 -66.4576
lclavicle -1.41137e-014 -3.37934e-015
lhumerus -29.9675 10.344 87.246
lradius 45.1129
lwrist 1.32186
lhand -6.42831 -13.4888
lfingers 7.12502
lthumb 19.4206 15.5614
rfemur -17.9896 -0.331561 20.9642
rtibia 20.6166
rfoot -9.80356 -9.04399
rtoes 22.52
lfemur -14.9029 0.750145 -18.1711
ltibia 15.0545
lfoot -9.81284 -0.0310841
ltoes -22.9413
438
root 1.60524 18.0076 3.37966 8.90184 -0.672717 -1.24523
lowerback 17.0386 1.2816 -0.182235
upperback 4.14661 1.72233 1.27153
thorax -5.15325 0.845347 1.08733
lowerneck -11.3897 2.08088 0.98959
upperneck 28.3938 3.38633 -2.21039
head 11.1053 1.38106 -0.541012
rclavicle -1.27222e-014 3.97569e-016
rhumerus -20.5581 -11.9568 -84.2224
rradius 35.1153
rwrist -1.60332
rhand -5.1295 -37.5868
rfingers 7.12502
rthumb 20.669 -66.5062
lclavicle -1.27222e-014 3.97569e-016
lhumerus -29.3179 8.93514 87.7367
lradius 46.5954
lwrist 2.04724
lhand -6.33501 -13.4519
lfingers 7.12502
lthumb 19.5103 15.5892
rfemur -19.4388 -0.535167 20.8974
rtibia 21.2954
rfoot -9.84552 -8.75909
rtoes 22.7749
lfemur -16.399 0.820974 -18.2399
ltibia 15.8405
lfoot -9.74948 -0.149763
ltoes -22.3359
439
root 1.60672 17.9933 3.23829 9.54454 -0.802727 -1.17185
lowerback 18.0018 1.35936 -0.27311
upperback 4.6166 1.8001 1.23346
thorax -5.16946 0.880659 1.06903
lowerneck -11.2844 1.98553 0.973286
upperneck 29.1867 3.29508 -2.27344
head 11.388 1.3236 -0.575113
rclavicle 0 7.15625e-015
rhumerus -19.6771 -10.9424 -84.4194
rradius 36.6226
rwrist -2.22454
rhand -4.77761 -37.7265
rfingers 7.12502
rthumb 21.0071 -66.6088
lclavicle 0 7.15625e-015
lhumerus -28.7163 7.67755 88.0436
lradius 48.2639
lwrist 2.80085
lhand -6.26007 -13.4318
lfingers 7.12502
lthumb 19.5823 15.602
rfemur -21.1037 -0.661767 20.8258
rtibia 22.0587
rfoot -9.67262 -8.44758
rtoes 22.7271
lfemur -18.1122 0.873482 -18.3161
ltibia 16.7572
lfoot -9.88597 -0.230974
ltoes -23.5461
440
root 1.6067 17.9715 3.08945 10.3028 -0.837658 -1.14455
lowerback 19.0041 1.36127 -0.369804
upperback 5.09599 1.7804 1.27042
thorax -5.19063 0.868056 1.15459
lowerneck -11.2144 1.94575 0.763827
upperneck 29.7754 3.30725 -2.28897
head 11.6003 1.29817 -0.544896
rclavicle -9.34288e-015 -4.77083e-015
rhumerus -18.7737 -9.57764 -84.5834
rradius 38.3222
rwrist -3.233
rhand -5.11558 -37.6291
rfingers 7.12502
rthumb 20.6824 -66.547
lclavicle -9.34288e-015 -4.77083e-015
lhumerus -28.0725 6.6185 88.3238
lradius 49.9931
lwrist 3.55036
lhand -6.39041 -13.5968
lfingers 7.12502
lthumb 19.457 15.4496
rfemur -22.9868 -0.808929 20.8295
rtibia 22.9299
rfoot -9.58735 -8.19452
rtoes 23.7159
lfemur -20.0771 1.01184 -18.3506
ltibia 17.8129
lfoot -10.579 -0.576872
ltoes -26.8071
441
root 1.60781 17.946 2.93633 11.1505 -0.746033 -1.14721
lowerback 20.0046 1.26185 -0.469775
upperback 5.58035 1.63187 1.38161
thorax -5.19731 0.792282 1.35357
lowerneck -11.0741 1.97487 0.446924
upperneck 30.0722 3.45762 -2.38928
head 11.6881 1.31465 -0.50966
rclavicle 2.5842e-015 7.95139e-016
rhumerus -17.7497 -7.86819 -84.6252
rradius 40.0215
rwrist -4.17893
rhand -5.48367 -37.376
rfingers 7.12502
rthumb 20.3286 -66.3321
lclavicle 2.5842e-015 7.95139e-016
lhumerus -27.4271 5.77632 88.5563
lradius 51.8109
lwrist 4.29732
lhand -6.63784 -13.7369
lfingers 7.12502
lthumb 19.2191 15.3334
rfemur -25.0455 -1.12702 20.9087
rtibia 23.9351
rfoot -9.30659 -7.87058
rtoes 24.2085
lfemur -22.2183 1.11462 -18.3521
ltibia 18.9751
lfoot -10.5363 -0.809254
ltoes -25.8227
442
root 1.60865 17.9164 2.78024 12.0148 -0.639378 -1.13629
lowerback 21.1054 1.17432 -0.597643
upperback 6.04132 1.49291 1.49845
thorax -5.27388 0.721029 1.57489
lowerneck -10.936 1.9753 0.150584
upperneck 30.1952 3.57641 -2.55818
head 11.7096 1.31266 -0.50732
rclavicle 5.1684e-015 1.98785e-015
rhumerus -16.7659 -6.26326 -84.5289
rradius 41.804
rwrist -5.03321
rhand -5.49677 -37.4955
rfingers 7.12502
rthumb 20.316 -66.4529
lclavicle 5.1684e-015 1.98785e-015
lhumerus -26.8985 4.92299 88.7246
lradius 53.7967
lwrist 4.97459
lhand -6.82848 -13.7856
lfingers 7.12502
lthumb 19.0358 15.3029
rfemur -27.2094 -1.56216 21.0216
rtibia 25.0605
rfoot -9.17626 -7.47665
rtoes 24.688
lfemur -24.4677 1.1938 -18.3739
ltibia 20.2803
lfoot -10.5934 -1.08679
ltoes -24.726
